<svg width="31" height="30" viewBox="0 0 31 30" fill="none" xmlns="http://www.w3.org/2000/svg">
<path id="Union" fill-rule="evenodd" clip-rule="evenodd" d="M28.789 29.706C29.1795 30.0965 29.8126 30.0966 30.2032 29.7061C30.5937 29.3156 30.5937 28.6824 30.2032 28.2918L16.9122 14.9995L30.2032 1.70716C30.5937 1.31661 30.5937 0.683449 30.2032 0.292944C29.8126 -0.0975609 29.1795 -0.0975303 28.7889 0.293013L15.4976 13.5857L2.20714 0.293904C1.81664 -0.096639 1.18347 -0.0966699 0.792928 0.293835C0.402384 0.684341 0.402354 1.31751 0.792859 1.70805L14.0839 15.0004L0.792859 28.2927C0.402354 28.6833 0.402384 29.3164 0.792928 29.7069C1.18347 30.0975 1.81664 30.0974 2.20714 29.7069L15.4985 16.4142L28.789 29.706Z" fill="white"/>
</svg>
